<svg width="512" height="512" xmlns="http://www.w3.org/2000/svg">
 <!-- Created with UXWing SVG Editor - https://uxwing.com/svg-icon-editor/ -->

 <g>
  <title>background</title>
  <rect fill="none" id="canvas_background" height="514" width="514" y="-1" x="-1"/>
  <g display="none" overflow="visible" y="0" x="0" height="100%" width="100%" id="canvasGrid">
   <rect fill="url(#gridpattern)" stroke-width="0" y="0" x="0" height="100%" width="100%"/>
  </g>
 </g>
 <g>
  <title>Layer 1</title>
  <!-- Created with UXWing SVG Editor - https://uxwing.com/svg-icon-editor/ -->
  <g opacity="0.64" id="svg_21">
   <g transform="matrix(0.333333, 0, 0, 0.333333, 0, 0)" id="svg_18">
    <title fill="#ebab94">background</title>
    <rect x="511.000854" y="511.000854" width="514" height="514" id="svg_16" fill="#ebab94"/>
    <g id="svg_15" display="none">
     <rect id="svg_19" width="512" height="512" x="512.000854" y="512.000854" stroke-width="0" fill="#ebab94"/>
    </g>
   </g>
   <g transform="matrix(0.333333, 0, 0, 0.333333, 0, 0)" id="svg_20">
    <title>Layer 1</title>
    <style type="text/css">
     <![CDATA[
	.st0{fill:#222222;}
	.st1{fill:#963d1d;}
]]>
    </style>
    <rect fill="#0f0f00" stroke="#FF0000" stroke-width="0.001" x="619.500853" y="625.00086" width="296.999984" height="285.999992" id="svg_14" opacity="0"/>
    <g id="svg_10">
     <g id="svg_11" transform="matrix(0.770405, 0, 0, 0.661016, 139.133, 108.811)">
      <path class="st1" d="m863.66333,963.483398c-0.02002,-0.180054 -0.050049,-0.369995 -0.050049,-0.570007c0,-0.190002 0.01001,-0.380005 0.050049,-0.570007l0,-12.48999c-8.76001,-0.830017 -17.790039,0.130005 -25.680054,3.119995c-7.369995,2.799988 -13.72998,7.390015 -17.859985,13.97998l0,71.150024c6.429993,-4.290039 13,-7.820068 19.75,-10.219971c7.690002,-2.73999 15.599976,-4.040039 23.790039,-3.390015l0,-61.01001l0,0l0,0zm-51.110046,73.880005l0,-70.530029c-3.969971,-7 -10.389954,-11.679993 -17.629944,-14.459961c-8.210022,-3.140015 -17.440063,-3.850037 -25.480042,-2.710022l-0.429993,75.049988c8.77002,-0.319946 17.359985,0.800049 25.429993,3.439941c6.429993,2.090088 12.52002,5.160034 18.109985,9.210083l0,0l0,0z" id="svg_13"/>
      <path class="st0" d="m761.463318,1028.40332l0.349976,-61.689941l-6.969971,0l0,78.5c9.570007,-2.469971 19.169983,-4.040039 28.849976,-4.109985c8.929993,-0.050049 17.859985,1.189941 26.809998,4.219971c-5.559998,-4.5 -11.76001,-7.819946 -18.380005,-9.969971c-8.329956,-2.720093 -17.339966,-3.619995 -26.579956,-2.829956c-2.090027,0.169922 -3.910034,-1.380127 -4.090027,-3.460083c-0.02002,-0.22998 -0.02002,-0.449951 0.01001,-0.660034l0,0l0,0zm62.330017,16.340088c8.369995,-2.630005 16.719971,-3.710083 25.079956,-3.660034c9.670044,0.049927 19.280029,1.640015 28.849976,4.109985l0,-78.47998l-6.47998,0l0,62.030029c0,2.089966 -1.699951,3.789917 -3.789978,3.789917c-0.299988,0 -0.590027,-0.029907 -0.869995,-0.099976c-8.289978,-1.300049 -16.320007,-0.219971 -24.159973,2.570068c-6.320068,2.25 -12.52002,5.619995 -18.630005,9.73999l0,0l0,0z" id="svg_12"/>
     </g>
    </g>
   </g>
  </g>
 </g>
</svg>